<?xml version="1.0" encoding="utf-8"?>
<svg version="1.2" baseProfile="tiny" xmlns="http://www.w3.org/2000/svg" xmlns:xlink="http://www.w3.org/1999/xlink" x="0px" y="0px" width="20px" height="20px" viewBox="0 0 20 20" overflow="visible" xml:space="preserve" fill="#ffffff">
<g>
	<path d="M15,0.001H5c-2.761,0-5,2.238-5,5v10c0,2.761,2.239,5,5,5h10c2.762,0,5-2.239,5-5v-10
		C20,2.239,17.762,0.001,15,0.001z M16.462,7.968l-7.173,7.174c-0.146,0.146-0.385,0.146-0.53,0l-1.061-1.07
		c-0.146-0.147-0.385-0.388-0.53-0.536l-2.467-2.592c-0.072-0.074-0.111-0.176-0.111-0.272s0.039-0.189,0.111-0.264l1.081-0.974
		c0.073-0.075,0.171-0.111,0.268-0.11c0.095,0,0.19,0.037,0.263,0.11l2.446,2.496c0.146,0.148,0.384,0.148,0.53,0l5.583-5.567
		c0.146-0.147,0.384-0.147,0.529,0l1.061,1.07C16.607,7.58,16.607,7.821,16.462,7.968z"/>
</g>
</svg>
