<?xml version="1.0" encoding="utf-8"?>
<!-- Generator: Adobe Illustrator 16.2.0, SVG Export Plug-In . SVG Version: 6.00 Build 0)  -->
<!DOCTYPE svg PUBLIC "-//W3C//DTD SVG 1.1//EN" "http://www.w3.org/Graphics/SVG/1.1/DTD/svg11.dtd">
<svg version="1.1" xmlns="http://www.w3.org/2000/svg" xmlns:xlink="http://www.w3.org/1999/xlink" x="0px" y="0px" width="295px"
	 height="81px" viewBox="0 0 295 81" enable-background="new 0 0 295 81" xml:space="preserve">
<g id="Because_the_Grand__Canyon_sucks_x21__1_" enable-background="new    ">
	<g id="Because_the_Grand__Canyon_sucks_x21_">
		<g>
			<path fill-rule="evenodd" clip-rule="evenodd" fill="#FFFFFF" d="M34.922,5.241c-2.096,0-4.596,1.471-6.324,4.485L18.304,27.521
				c-0.478,0.846-0.956,1.544-1.471,2.17c-2.647-3.641-1.875-9.082,1.838-11.472l-1.544-1.948
				c-8.015,5.11-5.662,19.854,7.721,19.854c11.435,0,16.729-13.714,9.375-18.604C41.944,14.911,42.532,5.241,34.922,5.241z
				 M24.774,33.184c-2.28,0-4.081-0.515-5.515-1.323c0.662-0.772,1.324-1.729,1.912-2.721l6.434-11.141l1.029,0.11
				C37.606,19.984,34.04,33.184,24.774,33.184z M36.429,12.08c-1.471,2.757-3.64,3.603-7.537,3.677l3.088-5.295
				C34.775,5.646,38.341,8.477,36.429,12.08z M57.755,33.992c2.766,0,5.515-1.376,7.964-3.325c-0.179,1.893,1.036,3.325,3.323,3.325
				c1.545,0,3.456-0.992,5.295-2.5c0.184,1.471,1.36,2.5,3.309,2.5c1.896,0,3.965-1.221,5.999-2.988
				c-0.227,1.835,0.735,2.988,2.496,2.988c2.096,0,4.448-1.911,6.287-3.676c-0.368,2.059,0.845,3.676,3.271,3.676
				c3.162,0,6.802-3.382,9.964-7.059c0,0,0-0.001-0.001-0.001c0.001,0,0.001,0.001,0.002,0.001c2.169-2.5,4.081-5.185,5.441-6.985
				c-1.508,3.971-0.699,11.104-4.339,11.104c-1.287,0-1.802-1.397-1.802-1.397l-2.39,1.25c0,0,0.699,3.088,4.191,3.088
				c0.368,0,0.699-0.036,1.066-0.073c0.037,0,0.073-0.037,0.11-0.037c2.753-0.363,5.485-2.013,7.864-4.128
				c0.12,2.45,2.066,4.238,5.188,4.238c4.338,0,8.64-3.382,11.802-7.059c-0.258-0.515-0.919-1.104-1.434-1.323l-0.258,0.294
				c-2.758,3.198-6.287,5.735-8.971,5.735c-2.354,0-3.75-1.471-1.985-4.56l0.367-0.661c2.464,1.029,7.096,0.552,9.964-4.412
				l0.552-0.956c2.059-3.529,0.073-6.177-3.052-6.177c-3.089,0-5.552,1.618-7.17,4.412l-3.704,6.355l-0.229,0.263
				c-1.397,1.654-3.089,3.125-4.597,4.154c1.214-3.64,0.956-9.229,3.31-14.118l-2.868-1.544c-1.581,2.169-5.037,7.169-8.493,11.214
				l-0.258,0.294c-2.757,3.198-5.441,5.735-7.133,5.735c-0.846,0-1.323-0.588-0.44-2.096l8.162-14.302h-3.824l-6.802,11.875
				c-2.904,2.647-5.147,4.118-5.883,3.787c-0.956-0.404,0-1.839,0.479-2.647l7.463-13.015h-3.823l-5.992,10.369c0,0,0,0-0.001,0
				l-0.258,0.294c-2.758,3.198-5.441,5.735-7.133,5.735c-0.846,0-1.323-0.588-0.441-2.096l6.177-10.81h-2.169
				c0.147-1.617-1.507-3.86-4.008-3.86c-2.059,0-4.926,1.618-6.544,4.412l-3.667,6.33c-0.003-0.001-0.007-0.004-0.01-0.005
				l-0.258,0.294c-2.757,3.198-6.287,5.735-8.971,5.735c-2.353,0-3.75-1.471-1.985-4.56l3.934-6.838
				c2.206-3.787,6.103-3.162,3.824,0.809l-0.552,0.956h3.125l0.552-0.956c2.059-3.529,0.073-6.177-3.052-6.177
				c-3.088,0-5.552,1.618-7.169,4.412l-3.705,6.357l-0.229,0.261c-2.758,3.198-6.287,5.735-8.971,5.735
				c-2.353,0-3.75-1.471-1.985-4.56l0.368-0.661c2.463,1.029,7.096,0.552,9.964-4.412l0.551-0.956
				c2.059-3.529,0.074-6.177-3.052-6.177c-3.088,0-5.552,1.618-7.169,4.412l-4.007,6.875c-2.39,4.081-0.331,7.831,4.191,7.831
				c3.178,0,6.335-1.818,9.04-4.234C52.688,32.206,54.634,33.992,57.755,33.992z M124.083,20.242
				c2.206-3.787,6.104-3.162,3.824,0.809l-0.552,0.956c-1.839,3.125-4.302,3.052-5.735,2.537L124.083,20.242z M69.741,29.544
				l5.331-9.302c2.059-3.566,6.14-2.647,4.265,0.809l-2.979,5.221c-2.315,3.64-4.596,5.368-6.177,5.368
				C69.337,31.64,68.858,31.052,69.741,29.544z M46.614,20.242c2.206-3.787,6.103-3.162,3.824,0.809l-0.552,0.956
				c-1.838,3.125-4.301,3.052-5.735,2.537L46.614,20.242z M143.496,33.992c1.551,0,3.216-0.816,4.884-2.079l-0.986,1.711h3.86
				l5.81-10.11c5.882-7.391,8.492-6.435,6.838-3.604l-4.963,8.64c-1.618,2.831-0.479,5.441,2.61,5.441
				c2.275,0,4.799-1.756,7.214-4.109c0.182,2.383,2.11,4.109,5.177,4.109c4.338,0,8.64-3.382,11.802-7.059
				c-0.257-0.515-0.919-1.104-1.434-1.323l-0.258,0.294c-2.757,3.198-6.287,5.735-8.971,5.735c-2.353,0-3.75-1.471-1.985-4.56
				l0.367-0.661c2.464,1.029,7.097,0.552,9.964-4.412l0.552-0.956c2.059-3.529,0.073-6.177-3.052-6.177
				c-3.088,0-5.552,1.618-7.169,4.412l-3.705,6.355l-0.229,0.263c-2.758,3.198-5.441,5.735-7.133,5.735
				c-0.846,0-1.324-0.588-0.441-2.096l5.515-9.67c1.654-2.904,0.074-5-2.059-5c-1.654,0-3.419,0.919-5.331,2.904l6.104-10.625
				h-3.824l-10.664,18.501l-0.219,0.25c-2.757,3.198-5.441,5.735-7.133,5.735c-0.846,0-1.323-0.588-0.44-2.096l8.198-14.302h3.125
				l1.104-1.839h-3.162l3.604-6.25h-3.824l-3.603,6.25h-3.456l-1.104,1.839h3.493l-7.685,13.309
				C139.269,31.382,140.408,33.992,143.496,33.992z M177.027,20.242c2.206-3.787,6.104-3.162,3.824,0.809l-0.552,0.956
				c-1.838,3.125-4.302,3.052-5.735,2.537L177.027,20.242z M289.683,25.61l-0.258,0.294c-2.757,3.198-5.441,5.735-7.133,5.735
				c-0.845,0-1.323-0.588-0.44-2.096l12.941-22.391h-3.823l-5.626,9.706c-0.661-1.066-1.911-1.985-3.492-1.985
				c-2.06,0-4.927,1.618-6.545,4.412l-3.667,6.33c-0.003-0.001-0.007-0.004-0.01-0.005l-0.258,0.294
				c-2.757,3.198-5.441,5.735-7.133,5.735c-0.846,0-1.323-0.588-0.44-2.096l5.515-9.67c1.654-2.904,0.073-5-2.06-5
				c-1.654,0-3.382,0.883-5.294,2.868l1.434-2.5h-3.823l-5.993,10.368l-0.258,0.294c-2.758,3.198-5.441,5.735-7.133,5.735
				c-0.846,0-1.323-0.588-0.441-2.096l6.177-10.81h-2.169c0.147-1.617-1.508-3.86-4.008-3.86c-2.059,0-4.927,1.618-6.544,4.412
				l-3.667,6.33c-0.003-0.001-0.007-0.004-0.01-0.005l-0.258,0.294c-2.758,3.198-5.441,5.735-7.133,5.735
				c-0.846,0-1.323-0.588-0.441-2.096l3.824-6.691c1.323-2.316,0.698-3.677-0.552-5.185l-2.133-2.573
				c-0.551-0.698-0.551-1.471,0.221-2.206l-1.985-2.169c-2.169,1.948-2.353,4.117-0.992,5.883l0.331,0.44
				c-1.691,2.391-3.971,5.626-6.472,8.567l-0.258,0.294c-3.161,3.64-5.846,5.992-8.86,7.279l4.854-8.309h-3.824l-0.404,0.661
				c-2.022,3.566-4.338,6.104-7.316,6.104c-2.61,0-3.088-2.61-0.809-6.508l1.066-1.875c0.698,0.11,1.396,0.184,2.169,0.184
				c13.604,0,20.185-18.199,8.199-18.199c-2.096,0-4.597,1.471-6.324,4.485l-5.956,10.258c-2.243-1.176-3.419-3.309-3.419-5.441
				c0-1.765,0.809-3.529,2.463-4.816l-1.25-2.242c-2.721,1.948-3.934,4.559-3.934,7.133c0,3.051,1.728,5.992,4.815,7.61l-1.14,1.985
				c-2.684,4.633-2.206,9.779,3.199,9.779c1.617,0,2.978-0.478,4.154-1.213l-0.992,1.729c-5.185,1.58-8.383,3.676-8.383,6.544
				c0,3.677,5.625,4.448,8.383-0.258l2.941-5.036c3.971-1.25,7.867-3.972,12.059-8.824c0,0-0.001-0.001-0.001-0.001
				c0.001,0,0.001,0.001,0.002,0.001c1.838-2.133,3.272-4.044,6.323-8.199l0.515,0.625c0.479,0.625,0.662,1.397,0.221,2.17
				l-4.044,7.021c-1.618,2.831-0.478,5.441,2.61,5.441c1.933,0,4.043-1.266,6.114-3.088c-0.058,1.773,1.146,3.088,3.335,3.088
				c1.545,0,3.456-0.992,5.295-2.5c0.184,1.471,1.36,2.5,3.309,2.5c1.552,0,3.22-0.818,4.889-2.083l-0.991,1.715h3.861l5.846-10.185
				c5.846-7.316,8.456-6.36,6.802-3.529l-4.964,8.64c-1.617,2.831-0.478,5.441,2.61,5.441c1.933,0,4.043-1.266,6.114-3.088
				c-0.058,1.773,1.146,3.088,3.336,3.088c1.544,0,3.456-0.992,5.294-2.5c0.184,1.471,1.36,2.5,3.309,2.5
				c3.162,0,6.802-3.382,9.964-7.059C290.859,26.419,290.197,25.83,289.683,25.61z M211.295,11.345
				c1.14-1.949,2.39-2.794,3.456-2.794c6.066,0,1.801,12.353-8.199,12.353h-0.772L211.295,11.345z M203.169,40.169
				c-0.809,1.435-2.096,1.214-2.096,0.185c0-0.993,0.883-2.133,3.824-3.272L203.169,40.169z M243.76,26.271
				c-2.316,3.64-4.596,5.368-6.177,5.368c-0.846,0-1.323-0.588-0.44-2.096l5.331-9.302c2.059-3.566,6.14-2.647,4.265,0.809
				L243.76,26.271z M279.977,26.051c-2.316,3.787-4.67,5.589-6.287,5.589c-0.846,0-1.324-0.588-0.441-2.096l5.331-9.302
				c2.059-3.566,6.14-2.647,4.265,0.809h0.037L279.977,26.051z M160.813,62.345l-0.257,0.294c-2.758,3.199-5.441,5.736-7.133,5.736
				c-0.846,0-1.323-0.589-0.441-2.096l5.515-9.67c1.655-2.904,0.074-5-2.059-5c-1.654,0-3.383,0.882-5.294,2.867l1.434-2.5h-3.823
				l-5.993,10.368l-0.258,0.294c-1.728,1.875-3.86,2.795-5.772,2.831l3.604-6.213c2.316-4.008,0.184-7.795-3.42-7.795
				c-2.94,0-5.221,1.177-7.427,5l-1.875,3.272l-1.561,2.671l-0.204,0.233c-3.162,3.641-5.846,5.993-8.86,7.28l10.478-17.942h-3.823
				l-6.765,11.766c-2.941,2.721-5.221,4.228-5.956,3.897c-0.956-0.405,0-1.839,0.478-2.647l7.464-13.016h-3.824l-5.992,10.369
				c0,0,0-0.001-0.001-0.001l-0.258,0.294c-2.757,3.199-5.441,5.736-7.133,5.736c-0.845,0-1.323-0.589-0.44-2.096l5.515-9.67
				c1.654-2.904,0.073-5-2.059-5c-1.655,0-3.383,0.882-5.295,2.867l1.435-2.5h-3.824l-5.993,10.368h0l-0.258,0.294
				c-2.758,3.199-5.441,5.736-7.133,5.736c-0.846,0-1.323-0.589-0.441-2.096l6.177-10.81h-2.169c0.147-1.618-1.507-3.86-4.008-3.86
				c-2.059,0-4.926,1.617-6.544,4.412L72.95,62.35c-0.003-0.001-0.007-0.004-0.01-0.005l-0.258,0.294
				c-2.758,3.199-6.14,5.736-9.927,5.736c-2.61,0-4.191-2.61-1.912-6.508l1.066-1.875c0.699,0.11,1.397,0.184,2.169,0.184
				c4.081,0,8.714-2.096,11.729-7.354c1.066-1.875,1.544-3.64,1.544-5.147c0-3.456-2.242-5.698-5.073-5.698
				c-2.096,0-4.596,1.471-6.324,4.485L59.997,56.72c-2.243-1.177-3.419-3.309-3.419-5.441c0-1.765,0.809-3.529,2.463-4.816
				l-1.25-2.243c-2.721,1.949-3.934,4.56-3.934,7.133c0,3.052,1.728,5.993,4.816,7.611l-1.14,1.985
				c-2.684,4.632-1.103,9.779,4.302,9.779c3.567,0,6.342-1.326,8.695-3.22c-0.123,1.84,1.085,3.22,3.328,3.22
				c1.545,0,3.456-0.992,5.295-2.5c0.184,1.471,1.36,2.5,3.309,2.5c1.553,0,3.221-0.818,4.891-2.084L86.36,70.36h3.86l5.846-10.185
				c5.846-7.316,8.456-6.36,6.802-3.529l-4.964,8.64c-1.617,2.831-0.478,5.441,2.61,5.441c1.896,0,3.965-1.222,5.999-2.988
				c-0.227,1.835,0.734,2.988,2.496,2.988c1.838,0,3.934-1.544,5.662-3.088l-2.096,3.603c-5.185,1.544-8.42,3.677-8.42,6.545
				c0,3.676,5.625,4.448,8.383-0.258l2.941-5.037c3.032-0.955,6.023-2.776,9.134-5.741c-0.044,4.907,6.754,5.878,10.904,0.631h0.846
				c1.146,0,2.627-0.354,4.064-1.001l-2.3,3.979h3.86l5.846-10.185c5.847-7.316,8.457-6.36,6.802-3.529l-4.963,8.64
				c-1.618,2.831-0.479,5.441,2.61,5.441c3.162,0,6.802-3.383,9.964-7.059C161.989,63.153,161.327,62.565,160.813,62.345z
				 M68.821,48.079c1.14-1.948,2.39-2.794,3.456-2.794c1.434,0,2.096,0.956,2.096,2.354c0,3.566-4.339,10-10.295,10h-0.772
				L68.821,48.079z M81.175,63.007c-2.315,3.64-4.596,5.368-6.177,5.368c-0.845,0-1.323-0.589-0.44-2.096l5.331-9.303
				c2.059-3.565,6.14-2.646,4.265,0.81L81.175,63.007z M109.34,76.904c-0.81,1.434-2.096,1.213-2.096,0.184
				c0-0.992,0.919-2.132,3.86-3.271L109.34,76.904z M134.599,62.603h-0.185c-1.25,0-2.242,1.029-2.242,2.279
				c0,0.478,0.146,0.919,0.367,1.287l-0.036,0.073c-1.802,3.088-6.177,2.5-3.897-1.471l2.904-5.037l1.839-3.125
				c2.684-4.559,6.36-2.758,4.044,1.213L134.599,62.603z M247.621,62.345l-0.258,0.294c-1.396,1.655-3.088,3.126-4.596,4.155
				c1.214-3.641,0.956-9.229,3.31-14.118l-2.868-1.545c-1.581,2.17-5.037,7.17-8.493,11.214l-0.258,0.294
				c-2.758,3.199-5.441,5.736-7.133,5.736c-0.846,0-1.654-0.846-1.654-2.574V64.22c2.684,0.331,5.515-1.434,7.316-4.559l1.029-1.765
				c3.566-6.104-2.242-8.126-6.14-4.56l5.441-9.448h-3.824l-10.662,18.498l-0.221,0.252c-2.758,3.199-6.287,5.736-8.971,5.736
				c-2.354,0-3.75-1.471-1.985-4.56l3.934-6.839c2.206-3.786,6.104-3.161,3.824,0.81l-0.552,0.956h3.125l0.552-0.956
				c2.059-3.53,0.073-6.177-3.052-6.177c-3.089,0-5.552,1.617-7.17,4.412l-3.702,6.353l-0.232,0.265
				c-2.757,3.199-5.441,5.736-7.132,5.736c-0.846,0-1.324-0.589-0.441-2.096l8.162-14.303h-3.824l-6.802,11.876
				c-2.904,2.646-5.147,4.117-5.883,3.787c-0.955-0.405,0-1.839,0.479-2.647l7.464-13.016h-3.824l-5.992,10.369
				c0-0.001-0.001-0.001-0.001-0.001l-0.258,0.294c-1.396,1.655-3.088,3.126-4.596,4.155c1.214-3.641,0.956-9.229,3.31-14.118
				l-2.868-1.545c-1.581,2.17-10.405,13.861-13.86,17.905c0.33,0.479,0.882,0.956,1.434,1.324
				c2.169-2.501,9.449-11.876,10.81-13.678c-1.508,3.971-0.699,11.104-4.339,11.104c-1.287,0-1.802-1.396-1.802-1.396l-2.39,1.25
				c0,0,0.698,3.088,4.191,3.088c0.367,0,0.698-0.037,1.066-0.073c0.036,0,0.073-0.037,0.11-0.037
				c2.316-0.306,4.617-1.524,6.707-3.161c-0.365,1.998,0.599,3.271,2.448,3.271c2.096,0,4.448-1.912,6.287-3.677
				c-0.368,2.06,0.846,3.677,3.271,3.677c2.276,0,4.8-1.757,7.215-4.11c0.182,2.384,2.109,4.11,5.177,4.11
				c2.421,0,4.83-1.055,7.037-2.625l-1.302,2.258h3.86l4.376-7.611v3.052c0,3.272,0.625,4.927,3.713,4.927
				c3.162,0,6.802-3.383,9.964-7.059c2.17-2.501,4.081-5.185,5.441-6.986c-1.507,3.971-0.698,11.104-4.338,11.104
				c-1.287,0-1.802-1.396-1.802-1.396l-2.39,1.25c0,0,0.698,3.088,4.191,3.088c0.367,0,0.698-0.037,1.066-0.073
				c0.036,0,0.073-0.037,0.11-0.037c3.896-0.515,7.758-3.603,10.625-6.948C248.834,63.08,248.173,62.492,247.621,62.345z
				 M223.686,60.653l1.103-1.911c4.412-6.141,7.427-4.449,6.066-2.133l-1.838,3.162C227.877,61.757,224.531,63.153,223.686,60.653z
				 M250.526,64.771h3.86l11.985-20.883h-3.823L250.526,64.771z M250.342,66.279c-1.25,0-2.206,0.992-2.206,2.242
				s0.956,2.206,2.206,2.206s2.243-0.956,2.243-2.206S251.592,66.279,250.342,66.279z"/>
		</g>
	</g>
</g>
<g id="_x201C__3_" enable-background="new    ">
	<g id="_x201C_">
		<g>
			<path fill="#FFFFFF" d="M0.288,7.069c0,1.801,1.5,2.801,2.95,2.801c1.25,0,2.65-0.851,2.65-2.75c0-1.301-1-2.25-2.5-2.5
				c0.6-0.95,2.1-1.7,3.3-1.7h0.3l0.1-2h-0.35C3.837,0.92,0.288,3.47,0.288,7.069z M14.237,0.92c-2.9,0-6.45,2.55-6.45,6.149
				c0,1.801,1.5,2.801,2.95,2.801c1.25,0,2.65-0.851,2.65-2.75c0-1.301-1-2.25-2.5-2.5c0.6-0.95,2.1-1.7,3.3-1.7h0.3l0.1-2H14.237z"
				/>
		</g>
	</g>
</g>
<g id="_x201C__2_" enable-background="new    ">
	<g id="_x201C__1_">
		<g>
			<path fill="#FFFFFF" d="M281.112,63.796c-1.25,0-2.649,0.85-2.649,2.749c0,1.301,1,2.25,2.5,2.5c-0.601,0.95-2.101,1.7-3.3,1.7
				h-0.301l-0.1,2h0.35c2.9,0,6.45-2.55,6.45-6.149C284.063,64.796,282.563,63.796,281.112,63.796z M273.613,63.796
				c-1.25,0-2.65,0.85-2.65,2.749c0,1.301,1,2.25,2.5,2.5c-0.6,0.95-2.1,1.7-3.3,1.7h-0.3l-0.101,2h0.351
				c2.899,0,6.449-2.55,6.449-6.149C276.563,64.796,275.063,63.796,273.613,63.796z"/>
		</g>
	</g>
</g>
</svg>
