<?xml version="1.0" encoding="utf-8"?>
<!-- Generator: Adobe Illustrator 16.2.0, SVG Export Plug-In . SVG Version: 6.00 Build 0)  -->
<!DOCTYPE svg PUBLIC "-//W3C//DTD SVG 1.1//EN" "http://www.w3.org/Graphics/SVG/1.1/DTD/svg11.dtd">
<svg version="1.1" id="Sedona_1_" xmlns="http://www.w3.org/2000/svg" xmlns:xlink="http://www.w3.org/1999/xlink" x="0px" y="0px"
	 width="458px" height="78px" viewBox="0 0 458 78" enable-background="new 0 0 458 78" xml:space="preserve">
<g id="Sedona">
	<g>
		<path fill-rule="evenodd" clip-rule="evenodd" fill="#FFFFFF" d="M41.702,31.842c-0.929-0.309-2.091-0.639-3.484-0.987
			c-1.394-0.349-2.828-0.715-4.297-1.104c-1.782-0.541-3.484-1.104-5.11-1.685c-1.626-0.58-2.866-1.219-3.717-1.916
			c-0.464-0.387-0.891-0.813-1.277-1.277c-0.388-0.465-0.659-0.968-0.813-1.51c-0.156-0.232-0.252-0.465-0.291-0.697
			c-0.04-0.232-0.058-0.465-0.058-0.696c0-1.549,0.773-3,2.323-4.355c1.548-1.354,3.212-2.149,4.994-2.381h0.929
			c2.709,0,5.226,0.58,7.549,1.742c2.323,1.161,4.529,2.517,6.62,4.064l6.388-14.285c-2.323-1.471-4.86-2.748-7.607-3.833
			c-2.75-1.083-5.517-1.858-8.304-2.323c-1.085-0.154-2.148-0.29-3.194-0.406s-2.073-0.174-3.078-0.174
			c-4.259,0-8.344,0.891-12.253,2.671c-3.911,1.782-7.104,4.724-9.582,8.827c-0.853,1.239-1.55,2.633-2.09,4.181
			c-0.542,1.55-0.929,3.098-1.162,4.646c-0.156,0.62-0.252,1.239-0.29,1.857c-0.04,0.621-0.058,1.24-0.058,1.858v0.871
			c0,0.272,0.038,0.563,0.116,0.871c0.076,0.93,0.212,1.82,0.406,2.672C4.554,29.326,4.769,30.14,5,30.912
			c1.238,3.873,3.522,6.835,6.853,8.885c3.328,2.053,6.891,3.543,10.685,4.472c0.077,0,0.154,0.021,0.232,0.059
			c0.076,0.04,0.154,0.058,0.232,0.058c0.697,0.156,1.432,0.33,2.207,0.522c0.773,0.194,1.586,0.447,2.439,0.755
			c2.091,0.775,4.045,1.879,5.865,3.311c1.818,1.434,2.729,3.194,2.729,5.284c0,0.389-0.04,0.813-0.116,1.278
			c-0.078,0.464-0.194,0.969-0.348,1.51c-0.078,0.156-0.156,0.31-0.232,0.464c-0.078,0.156-0.156,0.311-0.232,0.465
			c-0.621,1.008-1.492,1.858-2.613,2.556c-1.123,0.696-2.305,1.161-3.542,1.394c-0.311,0.078-0.639,0.136-0.987,0.174
			c-0.349,0.04-0.679,0.059-0.987,0.059c-0.078,0-0.174-0.019-0.291-0.059c-0.116-0.038-0.214-0.058-0.29-0.058
			c-0.078,0-0.174-0.019-0.291-0.059c-0.116-0.038-0.214-0.058-0.291-0.058c-3.408-0.154-6.428-1.22-9.059-3.194
			c-2.633-1.975-4.994-4.123-7.084-6.445c-0.078-0.076-0.136-0.135-0.174-0.175c-0.04-0.038-0.098-0.096-0.174-0.174L0.239,66.801
			c3.484,3.176,7.471,5.711,11.963,7.607c4.49,1.896,9.059,2.922,13.705,3.078h1.278c1.083,0,2.207-0.059,3.368-0.175
			s2.323-0.29,3.484-0.522c1.394-0.311,2.787-0.679,4.181-1.104c1.394-0.425,2.748-0.947,4.065-1.567
			c3.561-1.935,6.406-4.723,8.537-8.362c2.128-3.639,3.426-7.472,3.891-11.499c0-0.386,0.018-0.813,0.058-1.277
			c0.038-0.465,0.058-0.929,0.058-1.394v-0.581c-0.078-4.024-1.201-7.84-3.368-11.439C49.29,35.965,46.038,33.392,41.702,31.842z
			 M69.344,75.86h45.412V59.251H89.204V46.708h24.042V30.912H89.204V18.021h25.552V1.877H69.344V75.86z M191.062,20.808
			c-2.401-4.954-5.77-8.942-10.104-11.963c-3.408-2.477-7.144-4.181-11.208-5.11c-4.065-0.929-8.188-1.51-12.369-1.742
			c-1.162-0.076-2.343-0.115-3.543-0.115h-25.145V75.86h23.867c1.199,0,2.419-0.038,3.658-0.116
			c4.336-0.232,8.633-0.813,12.893-1.742c4.257-0.93,8.206-2.632,11.847-5.11c4.489-3.252,7.936-7.434,10.336-12.544
			c2.399-5.11,3.717-10.413,3.949-15.911v-2.904c0-0.464-0.04-0.929-0.116-1.394C194.815,30.874,193.46,25.764,191.062,20.808z
			 M174.917,38.926c0,3.33-0.601,6.524-1.8,9.582c-1.201,3.06-3.04,5.479-5.517,7.259c-1.55,1.086-3.292,1.898-5.227,2.439
			c-1.937,0.543-3.911,0.891-5.924,1.045c-0.774,0.078-1.588,0.137-2.438,0.175c-0.854,0.04-1.666,0.058-2.439,0.058
			c-0.232,0-0.465-0.018-0.697-0.058c-0.231-0.038-0.504-0.059-0.813-0.059c-0.232,0-0.484-0.018-0.755-0.058
			c-0.272-0.038-0.522-0.059-0.755-0.059V18.485h7.549c2.091,0.078,4.123,0.348,6.098,0.813s3.775,1.355,5.401,2.672
			c2.166,1.626,3.87,3.814,5.11,6.562c1.237,2.749,1.934,5.595,2.09,8.537c0.076,0.31,0.116,0.62,0.116,0.929V38.926z
			 M267.251,6.755c-2.556-1.626-5.247-2.942-8.072-3.949c-2.827-1.006-5.673-1.702-8.536-2.091c-0.93-0.076-1.879-0.154-2.846-0.232
			c-0.97-0.076-1.917-0.116-2.846-0.116c-6.893,0-13.513,1.742-19.86,5.227c-6.35,3.484-11.306,8.519-14.866,15.099
			c-1.008,1.858-1.858,3.814-2.556,5.865c-0.696,2.053-1.239,4.085-1.626,6.098c-0.232,1.085-0.389,2.131-0.465,3.136
			c-0.077,1.008-0.115,2.015-0.115,3.021c0,6.813,1.857,13.376,5.574,19.686c3.717,6.313,8.827,11.17,15.331,14.576
			c2.399,1.239,4.896,2.207,7.491,2.903c2.594,0.697,5.207,1.162,7.84,1.395c0.541,0,1.063,0.018,1.568,0.058
			c0.502,0.038,1.024,0.059,1.567,0.059c7.588,0,14.826-2.071,21.719-6.214c6.891-4.142,11.963-9.969,15.215-17.479
			c0.619-1.548,1.142-3.116,1.568-4.704c0.425-1.586,0.715-3.194,0.871-4.82c0.154-0.772,0.25-1.567,0.29-2.381
			c0.038-0.813,0.058-1.605,0.058-2.381c0-6.426-1.51-12.602-4.529-18.524C277.007,15.059,272.748,10.316,267.251,6.755z
			 M264.289,40.668c-0.04,0.543-0.098,1.086-0.174,1.626c-0.078,0.854-0.215,1.704-0.407,2.556
			c-0.194,0.853-0.406,1.666-0.639,2.439c-1.472,4.104-3.853,7.375-7.143,9.813c-3.292,2.439-6.988,3.659-11.092,3.659
			c-0.465,0-0.929-0.019-1.394-0.059c-0.465-0.038-0.93-0.096-1.394-0.174c-0.543-0.076-1.046-0.175-1.51-0.291
			c-0.465-0.116-0.93-0.25-1.395-0.406c-4.026-1.161-7.183-3.58-9.465-7.259c-2.285-3.677-3.543-7.567-3.775-11.673
			c-0.078-0.309-0.116-0.599-0.116-0.871v-0.871c0-0.54,0.019-1.063,0.059-1.567c0.038-0.503,0.096-1.025,0.174-1.568
			c0.154-0.772,0.309-1.527,0.465-2.265c0.154-0.735,0.349-1.452,0.581-2.148c0-0.154,0.018-0.309,0.058-0.465
			c0.038-0.154,0.097-0.309,0.174-0.465c1.316-4.103,3.639-7.393,6.969-9.872c3.328-2.477,6.969-3.717,10.918-3.717
			c0.773,0,1.548,0.059,2.322,0.175c0.773,0.116,1.549,0.252,2.323,0.406c0.773,0.232,1.548,0.505,2.323,0.813
			c0.772,0.31,1.548,0.658,2.322,1.045c2.864,1.704,5.11,4.104,6.736,7.201c1.626,3.098,2.632,6.312,3.021,9.64
			c0,0.465,0.018,0.929,0.058,1.394c0.038,0.465,0.058,0.93,0.058,1.394C264.347,39.623,264.327,40.128,264.289,40.668z
			 M351.802,38.229c0,1.704,0.038,3.368,0.116,4.994c0.076,1.626,0.192,3.214,0.349,4.762c0.076,0.854,0.174,1.666,0.29,2.439
			c0.116,0.774,0.213,1.588,0.291,2.438c-0.465-0.929-0.93-1.896-1.395-2.903c-0.464-1.006-0.929-2.013-1.394-3.02
			c-0.62-1.238-1.259-2.457-1.916-3.659c-0.659-1.199-1.336-2.341-2.032-3.426L318.236,1.877h-19.512V75.86h19.512v-36.47
			c0-2.477-0.116-4.954-0.349-7.433c-0.231-2.478-0.542-4.916-0.929-7.317c0.387,0.853,0.793,1.762,1.22,2.729
			c0.425,0.969,0.871,1.956,1.335,2.962c0.619,1.394,1.278,2.729,1.975,4.007c0.697,1.277,1.432,2.381,2.207,3.31l28.106,38.212
			h19.396V1.877h-19.396V38.229z M431.477,1.877h-25.203L380.838,75.86h19.977l3.833-13.357h28.571l3.717,13.357h20.209
			L431.477,1.877z M408.944,48.218l7.55-24.506c0.309-1.084,0.599-2.167,0.871-3.253c0.271-1.083,0.522-2.206,0.755-3.368
			c0.076-0.153,0.116-0.29,0.116-0.406s0.038-0.25,0.116-0.406c0.076-0.465,0.174-0.909,0.29-1.336
			c0.116-0.425,0.212-0.831,0.29-1.22c0.076,0.389,0.154,0.795,0.232,1.22c0.076,0.427,0.192,0.871,0.349,1.336
			c0.232,1.239,0.522,2.497,0.871,3.774s0.715,2.497,1.104,3.659l7.549,24.506H408.944z"/>
	</g>
</g>
</svg>
